<?xml version="1.0" standalone="no"?>
<!DOCTYPE svg PUBLIC "-//W3C//DTD SVG 20010904//EN"
 "http://www.w3.org/TR/2001/REC-SVG-20010904/DTD/svg10.dtd">
<svg version="1.0" xmlns="http://www.w3.org/2000/svg"
 width="512.000000pt" height="512.000000pt" viewBox="0 0 512.000000 512.000000"
 preserveAspectRatio="xMidYMid meet">

<g transform="translate(0.000000,512.000000) scale(0.100000,-0.100000)"
fill="#000000" stroke="none">
<path d="M2330 5109 c-604 -54 -1179 -330 -1606 -772 -197 -204 -336 -401
-459 -652 -156 -317 -231 -600 -257 -963 -24 -335 30 -722 147 -1038 46 -125
168 -376 231 -474 210 -329 518 -635 840 -833 459 -281 1019 -414 1544 -367
339 31 615 108 915 255 269 132 460 269 681 490 437 436 688 975 744 1595 19
222 9 427 -35 670 -94 525 -347 997 -736 1375 -321 312 -712 533 -1133 640
-297 75 -584 100 -876 74z m1284 -1577 c47 -93 59 -156 53 -277 -3 -60 -12
-133 -20 -162 -13 -45 -13 -54 -1 -64 29 -24 106 -160 134 -238 49 -133 63
-242 56 -421 -7 -187 -30 -301 -85 -415 -112 -230 -320 -348 -690 -391 -185
-22 -920 -15 -1056 9 -390 70 -584 217 -674 512 -48 155 -65 372 -40 511 23
134 93 297 167 391 l41 51 -19 93 c-32 155 -25 253 26 377 l26 62 73 0 c154 0
305 -46 435 -133 l75 -50 99 17 c250 42 515 43 731 1 l74 -14 68 46 c124 84
231 120 393 133 52 4 98 8 102 9 4 0 19 -21 32 -47z"/>
<path d="M1903 2592 c-109 -39 -191 -120 -234 -229 -31 -80 -38 -255 -14 -339
24 -85 61 -148 120 -203 139 -131 356 -181 790 -181 238 0 399 14 520 45 244
62 377 199 405 415 27 214 -61 400 -228 478 -53 25 -67 27 -182 26 -71 0 -175
-8 -240 -19 -152 -25 -405 -25 -545 -1 -55 9 -154 19 -220 22 -100 4 -128 2
-172 -14z m230 -136 c40 -16 83 -65 110 -126 17 -36 21 -66 21 -150 1 -100 -1
-109 -32 -173 -46 -92 -89 -121 -169 -115 -53 5 -60 8 -99 51 -73 81 -100 208
-70 327 23 92 61 150 116 178 51 25 78 27 123 8z m981 0 c124 -52 176 -291 97
-451 -45 -90 -88 -119 -168 -113 -53 5 -60 8 -99 52 -56 61 -79 129 -78 231 0
97 14 148 57 211 51 76 118 101 191 70z"/>
</g>
</svg>
